<svg xmlns="http://www.w3.org/2000/svg" xmlns:xlink="http://www.w3.org/1999/xlink" width="17" zoomAndPan="magnify" viewBox="0 0 375 374.999991" height="17" preserveAspectRatio="xMidYMid meet" version="1.0"><path fill="#ffa17c" d="M 204.019531 232.679688 L 204.019531 16.519531 C 204.019531 12.144531 202.320312 7.945312 199.195312 4.820312 C 196.070312 1.785156 191.875 0 187.5 0 C 183.125 0 178.929688 1.785156 175.804688 4.820312 C 172.679688 7.945312 170.980469 12.144531 170.980469 16.519531 L 170.980469 232.679688 C 170.980469 232.679688 139.464844 201.160156 121.875 183.570312 C 118.75 180.445312 114.554688 178.75 110.179688 178.75 C 105.804688 178.75 101.605469 180.445312 98.480469 183.570312 C 92.054688 190 92.054688 200.445312 98.480469 206.875 L 176.429688 284.820312 C 179.375 287.769531 183.304688 289.375 187.5 289.375 C 191.695312 289.375 195.625 287.769531 198.570312 284.820312 L 276.519531 206.875 C 282.945312 200.445312 282.945312 190 276.519531 183.570312 C 273.394531 180.445312 269.195312 178.75 264.820312 178.75 C 260.445312 178.75 256.25 180.445312 253.125 183.570312 C 235.445312 201.160156 204.019531 232.679688 204.019531 232.679688 Z M 204.019531 232.679688 " fill-opacity="1" fill-rule="evenodd"/><path fill="#ffa17c" d="M 0 343.75 C 0 352.054688 3.304688 360 9.195312 365.804688 C 15.089844 371.695312 23.035156 375 31.25 375 L 343.75 375 C 352.054688 375 360 371.695312 365.804688 365.804688 C 371.695312 359.910156 375 351.964844 375 343.75 L 375 249.195312 C 375 240.089844 367.589844 232.679688 358.480469 232.679688 C 354.105469 232.679688 349.910156 234.464844 346.785156 237.5 C 343.660156 240.625 341.964844 244.820312 341.964844 249.195312 L 341.964844 326.429688 C 341.964844 335.089844 335 342.054688 326.339844 342.054688 L 48.660156 342.054688 C 40 342.054688 33.035156 335.089844 33.035156 326.429688 L 33.035156 249.195312 C 33.035156 244.820312 31.25 240.625 28.214844 237.5 C 25.089844 234.375 20.894531 232.679688 16.519531 232.679688 C 7.410156 232.679688 0 240.089844 0 249.195312 Z M 0 343.75 " fill-opacity="1" fill-rule="evenodd"/></svg>